<svg width="27" height="27" viewBox="0 0 27 27" fill="none" xmlns="http://www.w3.org/2000/svg">
<path d="M13.5008 23.812C7.80552 23.812 3.18852 19.1953 3.18852 13.4999C3.18852 7.80464 7.80552 3.18764 13.5008 3.18764C19.1964 3.18764 23.8132 7.80464 23.8132 13.4999C23.8132 13.9165 24.1513 14.2545 24.5677 14.2545C24.9841 14.2545 25.322 13.9163 25.322 13.4999C25.322 6.97143 20.0294 1.67859 13.5008 1.67859C6.97232 1.67859 1.67969 6.97143 1.67969 13.4999C1.67969 20.0285 6.97232 25.3213 13.5008 25.3213C13.9174 25.3213 14.2554 24.9832 14.2554 24.5668C14.2554 24.1504 13.9174 23.812 13.5008 23.812Z" fill="#888"/>
<path d="M12.749 5.45139V13.7511H8.47285C8.05667 13.7511 7.71875 14.0893 7.71875 14.5057C7.71875 14.9227 8.05688 15.2606 8.47285 15.2606H13.5035C13.9201 15.2606 14.258 14.9225 14.258 14.5057V5.45139C14.258 5.03458 13.9199 4.69666 13.5035 4.69666C13.0871 4.69666 12.749 5.03479 12.749 5.45139Z" fill="#888"/>
<path d="M19.535 13.7512C16.3399 13.7512 13.75 16.3411 13.75 19.5362C13.75 22.7315 16.3397 25.3214 19.535 25.3214C22.7298 25.3214 25.3197 22.7317 25.3197 19.5362C25.3197 16.3411 22.73 13.7512 19.535 13.7512ZM19.605 22.1126C19.3538 22.4452 18.88 22.511 18.5478 22.2598L16.2405 20.5156C15.9087 20.2648 15.8427 19.7912 16.0944 19.4586C16.3454 19.1263 16.8191 19.0605 17.1509 19.3113L18.8564 20.6006L21.2606 17.4198C21.5119 17.0874 21.9854 17.0216 22.3176 17.2728C22.6499 17.524 22.7159 17.9976 22.4645 18.33L19.605 22.1126Z" fill="#888"/>
</svg>
