<svg width="27" height="26" viewBox="0 0 27 27" fill="none" xmlns="http://www.w3.org/2000/svg">
<path d="M18.0056 17.8392C20.8787 13.3308 20.5175 13.8933 20.6003 13.7757C21.6464 12.3003 22.1992 10.5639 22.1992 8.75391C22.1992 3.95402 18.3042 0 13.498 0C8.70755 0 4.79688 3.94622 4.79688 8.75391C4.79688 10.5627 5.36134 12.3446 6.44166 13.8399L8.99042 17.8393C6.26537 18.2581 1.63281 19.506 1.63281 22.2539C1.63281 23.2556 2.28661 24.6831 5.40132 25.7955C7.57619 26.5722 10.4516 27 13.498 27C19.1947 27 25.3633 25.3931 25.3633 22.2539C25.3633 19.5055 20.7362 18.2589 18.0056 17.8392ZM7.76313 12.9698C7.75443 12.9562 7.74536 12.9429 7.73587 12.9298C6.8369 11.6931 6.37891 10.2274 6.37891 8.75391C6.37891 4.79788 9.56438 1.58203 13.498 1.58203C17.4235 1.58203 20.6172 4.7993 20.6172 8.75391C20.6172 10.2297 20.1678 11.6457 19.3175 12.8498C19.2413 12.9503 19.6389 12.3327 13.498 21.9686L7.76313 12.9698ZM13.498 25.418C7.27571 25.418 3.21484 23.589 3.21484 22.2539C3.21484 21.3566 5.30144 19.8811 9.92519 19.306L12.831 23.8656C12.9762 24.0935 13.2277 24.2314 13.498 24.2314C13.7683 24.2314 14.0199 24.0934 14.165 23.8656L17.0707 19.306C21.6946 19.8811 23.7812 21.3566 23.7812 22.2539C23.7812 23.5776 19.7569 25.418 13.498 25.418Z" fill="#888"/>
<path d="M13.502 4.79883C11.3211 4.79883 9.54688 6.57308 9.54688 8.75391C9.54688 10.9347 11.3211 12.709 13.502 12.709C15.6828 12.709 17.457 10.9347 17.457 8.75391C17.457 6.57308 15.6828 4.79883 13.502 4.79883ZM13.502 11.127C12.1935 11.127 11.1289 10.0624 11.1289 8.75391C11.1289 7.44541 12.1935 6.38086 13.502 6.38086C14.8105 6.38086 15.875 7.44541 15.875 8.75391C15.875 10.0624 14.8105 11.127 13.502 11.127Z" fill="#888"/>
</svg>
